{
	"asset": {
		"generator": "Blocks 2.0.1_SVR_RC5",
		"version": "1.1",
		"copyright": "Unknown"
	},
	"buffers": {
		"model": {
			"byteLength": 374800,
			"type": "arraybuffer",
			"uri": "model.bin"
		}
	},
	"accessors": {
		"accessor_position_m0-PolyPaper9_-31464": {
			"bufferView": "vec3BufferView",
			"byteOffset": 0,
			"byteStride": 12,
			"componentType": 5126,
			"count": 8854,
			"max": [ 1.02866, 2.316504, 1.379967 ],
			"min": [ 0.2171981, 1.315315, -0.172197 ],
			"type": "VEC3"
		 },
		"accessor_normal_m0-PolyPaper9_-31464": {
			"bufferView": "vec3BufferView",
			"byteOffset": 106248,
			"byteStride": 12,
			"componentType": 5126,
			"count": 8854,
			"max": [ 0.9996533, 0.9996509, 0.9966576 ],
			"min": [ -0.9985851, -0.9996513, -0.9994264 ],
			"type": "VEC3"
		 },
		"accessor_color_m0-PolyPaper9_-31464": {
			"bufferView": "vec4BufferView",
			"byteOffset": 0,
			"byteStride": 16,
			"componentType": 5126,
			"count": 8854,
			"max": [ 0.5450981, 0.7647059, 0.3137255, 1 ],
			"min": [ 0.2980392, 0.6862745, 0.2901961, 1 ],
			"type": "VEC4"
		 },
		"accessor_indices_0_m0-PolyPaper9_-31464": {
			"bufferView": "ushortBufferView",
			"byteOffset": 0,
			"byteStride": 0,
			"componentType": 5123,
			"count": 10320,
			"max": [ 8853 ],
			"min": [ 0 ],
			"type": "SCALAR"
		 }
	},
	"bufferViews": {
		"ushortBufferView": {
			"buffer": "model",
			"byteLength": 20640,
			"byteOffset": 0,
			"target": 34963
		},
		"vec3BufferView": {
			"buffer": "model",
			"byteLength": 212496,
			"byteOffset": 20640,
			"target": 34962
		},
		"vec4BufferView": {
			"buffer": "model",
			"byteLength": 141664,
			"byteOffset": 233136,
			"target": 34962
		}
	},
	"meshes": {
		"mesh_m0-PolyPaper9_-31464": {
			"name": "mesh_m0-PolyPaper9_-31464",
			"primitives": [
				{
					"attributes": {
						"POSITION": "accessor_position_m0-PolyPaper9_-31464",
						"NORMAL": "accessor_normal_m0-PolyPaper9_-31464",
						"COLOR": "accessor_color_m0-PolyPaper9_-31464"
					},
					"indices": "accessor_indices_0_m0-PolyPaper9_-31464",
					"material": "material_mat9",
					"mode": 4
				}
			]
		}
	},
	"shaders": {
		"vertex_mat9": {
			"type": 35633,
			"uri": "https://vr.google.com/shaders/w/vs.glsl"
		},
		"fragment_mat9": {
			"type": 35632,
			"uri": "https://vr.google.com/shaders/w/fs.glsl"
		}
	},
	"programs": {
		"program_mat9": {
			"attributes": [
				"a_position",
				"a_normal",
				"a_color"				
			],
			"vertexShader": "vertex_mat9",
			"fragmentShader": "fragment_mat9"
		}
	},
	"techniques": {
		"technique_mat9": {
			"program": "program_mat9",
			"extras": {"gvrss" : "https://vr.google.com/shaders/w/gvrss/paper.json"},
			"parameters": {
				"position": {
					"type": 35665,
					"semantic": "POSITION"
				},
				"normal": {
					"type": 35665,
					"semantic": "NORMAL"
				},
				"color": {
					"type": 35666,
					"semantic": "COLOR"
				},
				"modelViewMatrix": {
					"type": 35676,
					"semantic": "MODELVIEW"
				},
				"projectionMatrix": {
					"type": 35676,
					"semantic": "PROJECTION"
				},
				"normalMatrix": {
					"type": 35675,
					"semantic": "MODELVIEWINVERSETRANSPOSE"
				},
				"color": {
					"type": 35666
				},
				"roughness": {
					"type": 5126
				},
				"metallic": {
					"type": 5126
				},
				"light0Pos": {
					"type": 35666
				},
				"light0Color": {
					"type": 35666
				},
				"light1Pos": {
					"type": 35666
				},
				"light1Color": {
					"type": 35666
				}				
			},
			"attributes": {
				"a_position": "position",
				"a_normal": "normal",
				"a_color": "color"				
			},
			"uniforms": {
				"u_modelViewMatrix": "modelViewMatrix",
				"u_projectionMatrix": "projectionMatrix",
				"u_normalMatrix": "normalMatrix",
				"u_color": "color",
				"u_roughness": "roughness",
				"u_metallic": "metallic",
				"u_light0Pos": "light0Pos",
				"u_light0Color": "light0Color",
				"u_light1Pos": "light1Pos",
				"u_light1Color": "light1Color"				
			},
			"states": {
				"enable": [
					2929,
					2884
				],
				"functions": {
					"cullFace": [1029]
				}
			}
		}
	},
	"materials": {
		"material_mat9": {
			"technique": "technique_mat9",
			"values": {
				"color": [0.5450981, 0.7647059, 0.2901961, 1],
				"roughness": 0.72,
				"metallic": 0,
				"light0Pos": [-0.02, 4.11, -0.54, 0],
				"light0Color": [0.8, 0.8, 0.8, 0],
				"light1Pos": [0.02, -4.11, 0.54, 0],
				"light1Color": [0.64, 0.64, 0.64, 0]				
			},
			"name": "material_mat9"
		}
	},
	"nodes": {
		"node_MeshObject202074880-PolyPaper9": {
			"name": "node_MeshObject202074880-PolyPaper9",
			"meshes": [
				"mesh_m0-PolyPaper9_-31464"
			],
			"matrix": [1, 0, 0, 0, 0, 1, 0, 0, 0, 0, 1, 0, 0, 0, 0, 1]
		}
	},
	"scene": "defaultScene",
	"scenes": {
		"defaultScene": {
			"nodes": [
				"node_MeshObject202074880-PolyPaper9"
			],
			"extras": {

			}
		}
	}
}